<?xml version="1.0" encoding="UTF-8" standalone="no"?><svg xmlns="http://www.w3.org/2000/svg" xmlns:xlink="http://www.w3.org/1999/xlink" contentScriptType="application/ecmascript" contentStyleType="text/css" height="1256.6667px" preserveAspectRatio="none" style="width:1330px;height:1256px;" version="1.1" viewBox="0 0 1330 1256" width="1330px" zoomAndPan="magnify"><defs/><g><text fill="#000000" font-family="sans-serif" font-size="30" lengthAdjust="spacingAndGlyphs" textLength="643.3333" x="350" y="27.8467">Observer + Singleton - eventos do domínio</text><!--MD5=[42e968b2fd6ea029a7e2488e62be6660]
class BarramentoEventos--><rect fill="#FEFEFE" height="239.2839" id="BarramentoEventos" style="stroke: #444444; stroke-width: 2.5;" width="428.3333" x="497.5" y="249.9219"/><ellipse cx="601.25" cy="281.5365" fill="#ADD1B2" rx="18.3333" ry="18.3333" style="stroke: #444444; stroke-width: 1.6666666666666667;"/><path d="M606.1979,290.9375 Q605.2344,291.4323 604.1667,291.6667 Q603.099,291.9271 601.9271,291.9271 Q597.7604,291.9271 595.5469,289.1927 Q593.3594,286.4323 593.3594,281.224 Q593.3594,276.0156 595.5469,273.2552 Q597.7604,270.4948 601.9271,270.4948 Q603.099,270.4948 604.1667,270.7552 Q605.2604,271.0156 606.1979,271.5104 L606.1979,276.0417 Q605.1563,275.0781 604.1667,274.6354 Q603.1771,274.1667 602.1354,274.1667 Q599.8958,274.1667 598.75,275.9635 Q597.6042,277.7344 597.6042,281.224 Q597.6042,284.7135 598.75,286.5104 Q599.8958,288.2813 602.1354,288.2813 Q603.1771,288.2813 604.1667,287.8385 Q605.1563,287.3698 606.1979,286.4063 L606.1979,290.9375 Z "/><text fill="#000000" font-family="sans-serif" font-size="20" font-style="italic" lengthAdjust="spacingAndGlyphs" textLength="213.3333" x="632.0833" y="276.8197">«Subject, Singleton»</text><text fill="#000000" font-family="sans-serif" font-size="20" lengthAdjust="spacingAndGlyphs" textLength="206.6667" x="635.4167" y="300.1009">BarramentoEventos</text><line style="stroke: #444444; stroke-width: 2.5;" x1="499.1667" x2="924.1667" y1="313.151" y2="313.151"/><text fill="#000000" font-family="sans-serif" font-size="18.3333" lengthAdjust="spacingAndGlyphs" text-decoration="underline" textLength="313.3333" x="507.5" y="336.8351">-INSTANCIA : BarramentoEventos</text><text fill="#000000" font-family="sans-serif" font-size="18.3333" lengthAdjust="spacingAndGlyphs" textLength="408.3333" x="507.5" y="358.1763">-observadores : List&lt;ObservadorEventos&gt;</text><line style="stroke: #444444; stroke-width: 2.5;" x1="499.1667" x2="924.1667" y1="369.1667" y2="369.1667"/><text fill="#000000" font-family="sans-serif" font-size="18.3333" lengthAdjust="spacingAndGlyphs" textLength="208.3333" x="507.5" y="392.8507">-BarramentoEventos()</text><text fill="#000000" font-family="sans-serif" font-size="18.3333" lengthAdjust="spacingAndGlyphs" text-decoration="underline" textLength="351.6667" x="507.5" y="414.1919">+getInstancia() : BarramentoEventos</text><text fill="#000000" font-family="sans-serif" font-size="18.3333" lengthAdjust="spacingAndGlyphs" textLength="388.3333" x="507.5" y="435.533">+registrar(o : ObservadorEventos) : void</text><text fill="#000000" font-family="sans-serif" font-size="18.3333" lengthAdjust="spacingAndGlyphs" textLength="385" x="507.5" y="456.8742">+remover(o : ObservadorEventos) : void</text><text fill="#000000" font-family="sans-serif" font-size="18.3333" lengthAdjust="spacingAndGlyphs" textLength="325" x="507.5" y="478.2153">+publicar(e : EventoCarona) : void</text><!--MD5=[ab9bd895b1ec082e7030b265cd53ab67]
class ObservadorEventos--><rect fill="#FEFEFE" height="111.237" id="ObservadorEventos" style="stroke: #444444; stroke-width: 2.5;" width="350" x="536.6667" y="574.9219"/><ellipse cx="605.9167" cy="606.5365" fill="#B4A7E5" rx="18.3333" ry="18.3333" style="stroke: #444444; stroke-width: 1.6666666666666667;"/><path d="M599.1198,599.4792 L599.1198,595.8854 L611.4375,595.8854 L611.4375,599.4792 L607.3229,599.4792 L607.3229,612.9427 L611.4375,612.9427 L611.4375,616.5365 L599.1198,616.5365 L599.1198,612.9427 L603.2344,612.9427 L603.2344,599.4792 L599.1198,599.4792 Z "/><text fill="#000000" font-family="sans-serif" font-size="20" font-style="italic" lengthAdjust="spacingAndGlyphs" textLength="113.3333" x="681.5833" y="601.8197">«Observer»</text><text fill="#000000" font-family="sans-serif" font-size="20" font-style="italic" lengthAdjust="spacingAndGlyphs" textLength="198.3333" x="639.0833" y="625.1009">ObservadorEventos</text><line style="stroke: #444444; stroke-width: 2.5;" x1="538.3333" x2="885" y1="638.151" y2="638.151"/><line style="stroke: #444444; stroke-width: 2.5;" x1="538.3333" x2="885" y1="651.4844" y2="651.4844"/><text fill="#000000" font-family="sans-serif" font-size="18.3333" lengthAdjust="spacingAndGlyphs" textLength="330" x="546.6667" y="675.1685">+atualizar(e : EventoCarona) : void</text><!--MD5=[9e451e01be529b221771fca1393dd209]
class NotificacaoObserver--><rect fill="#FEFEFE" height="89.8958" id="NotificacaoObserver" style="stroke: #444444; stroke-width: 2.5;" width="263.3333" x="10" y="824.9219"/><ellipse cx="35" cy="856.5365" fill="#ADD1B2" rx="18.3333" ry="18.3333" style="stroke: #444444; stroke-width: 1.6666666666666667;"/><path d="M39.9479,865.9375 Q38.9844,866.4323 37.9167,866.6667 Q36.849,866.9271 35.6771,866.9271 Q31.5104,866.9271 29.2969,864.1927 Q27.1094,861.4323 27.1094,856.224 Q27.1094,851.0156 29.2969,848.2552 Q31.5104,845.4948 35.6771,845.4948 Q36.849,845.4948 37.9167,845.7552 Q39.0104,846.0156 39.9479,846.5104 L39.9479,851.0417 Q38.9063,850.0781 37.9167,849.6354 Q36.9271,849.1667 35.8854,849.1667 Q33.6458,849.1667 32.5,850.9635 Q31.3542,852.7344 31.3542,856.224 Q31.3542,859.7135 32.5,861.5104 Q33.6458,863.2813 35.8854,863.2813 Q36.9271,863.2813 37.9167,862.8385 Q38.9063,862.3698 39.9479,861.4063 L39.9479,865.9375 Z "/><text fill="#000000" font-family="sans-serif" font-size="20" font-style="italic" lengthAdjust="spacingAndGlyphs" textLength="208.3333" x="59.1667" y="851.8197">«ConcreteObserver»</text><text fill="#000000" font-family="sans-serif" font-size="20" lengthAdjust="spacingAndGlyphs" textLength="210" x="58.3333" y="875.1009">NotificacaoObserver</text><line style="stroke: #444444; stroke-width: 2.5;" x1="11.6667" x2="271.6667" y1="888.151" y2="888.151"/><line style="stroke: #444444; stroke-width: 2.5;" x1="11.6667" x2="271.6667" y1="901.4844" y2="901.4844"/><!--MD5=[d44ab4b66c737abc0716e634973a0d78]
class HistoricoObserver--><rect fill="#FEFEFE" height="89.8958" id="HistoricoObserver" style="stroke: #444444; stroke-width: 2.5;" width="255" x="344.1667" y="824.9219"/><ellipse cx="369.1667" cy="856.5365" fill="#ADD1B2" rx="18.3333" ry="18.3333" style="stroke: #444444; stroke-width: 1.6666666666666667;"/><path d="M374.1146,865.9375 Q373.151,866.4323 372.0833,866.6667 Q371.0156,866.9271 369.8438,866.9271 Q365.6771,866.9271 363.4635,864.1927 Q361.276,861.4323 361.276,856.224 Q361.276,851.0156 363.4635,848.2552 Q365.6771,845.4948 369.8438,845.4948 Q371.0156,845.4948 372.0833,845.7552 Q373.1771,846.0156 374.1146,846.5104 L374.1146,851.0417 Q373.0729,850.0781 372.0833,849.6354 Q371.0938,849.1667 370.0521,849.1667 Q367.8125,849.1667 366.6667,850.9635 Q365.5208,852.7344 365.5208,856.224 Q365.5208,859.7135 366.6667,861.5104 Q367.8125,863.2813 370.0521,863.2813 Q371.0938,863.2813 372.0833,862.8385 Q373.0729,862.3698 374.1146,861.4063 L374.1146,865.9375 Z "/><text fill="#000000" font-family="sans-serif" font-size="20" font-style="italic" lengthAdjust="spacingAndGlyphs" textLength="208.3333" x="389.1667" y="851.8197">«ConcreteObserver»</text><text fill="#000000" font-family="sans-serif" font-size="20" lengthAdjust="spacingAndGlyphs" textLength="185" x="400.8333" y="875.1009">HistoricoObserver</text><line style="stroke: #444444; stroke-width: 2.5;" x1="345.8333" x2="597.5" y1="888.151" y2="888.151"/><line style="stroke: #444444; stroke-width: 2.5;" x1="345.8333" x2="597.5" y1="901.4844" y2="901.4844"/><!--MD5=[6c61335db9aa3e03e087845b20754919]
class AuditoriaObserver--><rect fill="#FEFEFE" height="89.8958" id="AuditoriaObserver" style="stroke: #444444; stroke-width: 2.5;" width="255" x="665.8333" y="824.9219"/><ellipse cx="690.8333" cy="856.5365" fill="#ADD1B2" rx="18.3333" ry="18.3333" style="stroke: #444444; stroke-width: 1.6666666666666667;"/><path d="M695.7813,865.9375 Q694.8177,866.4323 693.75,866.6667 Q692.6823,866.9271 691.5104,866.9271 Q687.3438,866.9271 685.1302,864.1927 Q682.9427,861.4323 682.9427,856.224 Q682.9427,851.0156 685.1302,848.2552 Q687.3438,845.4948 691.5104,845.4948 Q692.6823,845.4948 693.75,845.7552 Q694.8438,846.0156 695.7813,846.5104 L695.7813,851.0417 Q694.7396,850.0781 693.75,849.6354 Q692.7604,849.1667 691.7188,849.1667 Q689.4792,849.1667 688.3333,850.9635 Q687.1875,852.7344 687.1875,856.224 Q687.1875,859.7135 688.3333,861.5104 Q689.4792,863.2813 691.7188,863.2813 Q692.7604,863.2813 693.75,862.8385 Q694.7396,862.3698 695.7813,861.4063 L695.7813,865.9375 Z "/><text fill="#000000" font-family="sans-serif" font-size="20" font-style="italic" lengthAdjust="spacingAndGlyphs" textLength="208.3333" x="710.8333" y="851.8197">«ConcreteObserver»</text><text fill="#000000" font-family="sans-serif" font-size="20" lengthAdjust="spacingAndGlyphs" textLength="186.6667" x="721.6667" y="875.1009">AuditoriaObserver</text><line style="stroke: #444444; stroke-width: 2.5;" x1="667.5" x2="919.1667" y1="888.151" y2="888.151"/><line style="stroke: #444444; stroke-width: 2.5;" x1="667.5" x2="919.1667" y1="901.4844" y2="901.4844"/><!--MD5=[018a4798fbbc889102e5f0d9a28fbaea]
class EventoCarona--><rect fill="#FEFEFE" height="196.6016" id="EventoCarona" style="stroke: #444444; stroke-width: 2.5;" width="325" x="987.5" y="771.5885"/><ellipse cx="1069.5833" cy="803.2031" fill="#ADD1B2" rx="18.3333" ry="18.3333" style="stroke: #444444; stroke-width: 1.6666666666666667;"/><path d="M1074.5313,812.6042 Q1073.5677,813.099 1072.5,813.3333 Q1071.4323,813.5938 1070.2604,813.5938 Q1066.0938,813.5938 1063.8802,810.8594 Q1061.6927,808.099 1061.6927,802.8906 Q1061.6927,797.6823 1063.8802,794.9219 Q1066.0938,792.1615 1070.2604,792.1615 Q1071.4323,792.1615 1072.5,792.4219 Q1073.5938,792.6823 1074.5313,793.1771 L1074.5313,797.7083 Q1073.4896,796.7448 1072.5,796.3021 Q1071.5104,795.8333 1070.4688,795.8333 Q1068.2292,795.8333 1067.0833,797.6302 Q1065.9375,799.401 1065.9375,802.8906 Q1065.9375,806.3802 1067.0833,808.1771 Q1068.2292,809.9479 1070.4688,809.9479 Q1071.5104,809.9479 1072.5,809.5052 Q1073.4896,809.0365 1074.5313,808.0729 L1074.5313,812.6042 Z "/><text fill="#000000" font-family="sans-serif" font-size="20" font-style="italic" lengthAdjust="spacingAndGlyphs" textLength="91.6667" x="1131.25" y="798.4863">«record»</text><text fill="#000000" font-family="sans-serif" font-size="20" lengthAdjust="spacingAndGlyphs" textLength="146.6667" x="1103.75" y="821.7676">EventoCarona</text><line style="stroke: #444444; stroke-width: 2.5;" x1="989.1667" x2="1310.8333" y1="834.8177" y2="834.8177"/><text fill="#000000" font-family="sans-serif" font-size="18.3333" lengthAdjust="spacingAndGlyphs" textLength="173.3333" x="997.5" y="858.5018">+tipo : TipoEvento</text><text fill="#000000" font-family="sans-serif" font-size="18.3333" lengthAdjust="spacingAndGlyphs" textLength="305" x="997.5" y="879.8429">+solicitacao : SolicitacaoCarona</text><text fill="#000000" font-family="sans-serif" font-size="18.3333" lengthAdjust="spacingAndGlyphs" textLength="168.3333" x="997.5" y="901.1841">+carona : Carona</text><text fill="#000000" font-family="sans-serif" font-size="18.3333" lengthAdjust="spacingAndGlyphs" textLength="248.3333" x="997.5" y="922.5252">+pagamento : Pagamento</text><text fill="#000000" font-family="sans-serif" font-size="18.3333" lengthAdjust="spacingAndGlyphs" textLength="243.3333" x="997.5" y="943.8664">+quando : LocalDateTime</text><line style="stroke: #444444; stroke-width: 2.5;" x1="989.1667" x2="1310.8333" y1="954.8568" y2="954.8568"/><!--MD5=[8ca8f92eb28019e53bbe4bb4e3413c49]
class TipoEvento--><rect fill="#FEFEFE" height="186.7057" id="TipoEvento" style="stroke: #444444; stroke-width: 2.5;" width="265" x="1017.5" y="1053.2552"/><ellipse cx="1086" cy="1079.9219" fill="#EB937F" rx="18.3333" ry="18.3333" style="stroke: #444444; stroke-width: 1.6666666666666667;"/><path d="M1092.849,1089.9219 L1079.9844,1089.9219 L1079.9844,1069.2708 L1092.849,1069.2708 L1092.849,1072.8646 L1084.0729,1072.8646 L1084.0729,1077.3177 L1092.0156,1077.3177 L1092.0156,1080.9115 L1084.0729,1080.9115 L1084.0729,1086.3281 L1092.849,1086.3281 L1092.849,1089.9219 Z "/><text fill="#000000" font-family="sans-serif" font-size="20" lengthAdjust="spacingAndGlyphs" textLength="115" x="1119" y="1086.8457">TipoEvento</text><line style="stroke: #444444; stroke-width: 2.5;" x1="1019.1667" x2="1280.8333" y1="1106.5885" y2="1106.5885"/><text fill="#000000" font-family="sans-serif" font-size="18.3333" lengthAdjust="spacingAndGlyphs" textLength="201.6667" x="1027.5" y="1130.2726">SOLICITACAO_CRIADA</text><text fill="#000000" font-family="sans-serif" font-size="18.3333" lengthAdjust="spacingAndGlyphs" textLength="200" x="1027.5" y="1151.6138">SOLICITACAO_ACEITA</text><text fill="#000000" font-family="sans-serif" font-size="18.3333" lengthAdjust="spacingAndGlyphs" textLength="235" x="1027.5" y="1172.9549">SOLICITACAO_RECUSADA</text><text fill="#000000" font-family="sans-serif" font-size="18.3333" lengthAdjust="spacingAndGlyphs" textLength="245" x="1027.5" y="1194.2961">SOLICITACAO_CANCELADA</text><text fill="#000000" font-family="sans-serif" font-size="18.3333" lengthAdjust="spacingAndGlyphs" textLength="231.6667" x="1027.5" y="1215.6372">PAGAMENTO_REALIZADO</text><line style="stroke: #444444; stroke-width: 2.5;" x1="1019.1667" x2="1280.8333" y1="1226.6276" y2="1226.6276"/><!--MD5=[cb8c6d309f133a86d31b7684a5eb425d]
class CaronasFacade--><rect fill="#FEFEFE" height="89.8958" id="CaronasFacade" style="stroke: #444444; stroke-width: 2.5;" width="233.3333" x="595" y="48.2552"/><ellipse cx="620" cy="79.8698" fill="#ADD1B2" rx="18.3333" ry="18.3333" style="stroke: #444444; stroke-width: 1.6666666666666667;"/><path d="M624.9479,89.2708 Q623.9844,89.7656 622.9167,90 Q621.849,90.2604 620.6771,90.2604 Q616.5104,90.2604 614.2969,87.526 Q612.1094,84.7656 612.1094,79.5573 Q612.1094,74.349 614.2969,71.5885 Q616.5104,68.8281 620.6771,68.8281 Q621.849,68.8281 622.9167,69.0885 Q624.0104,69.349 624.9479,69.8438 L624.9479,74.375 Q623.9063,73.4115 622.9167,72.9688 Q621.9271,72.5 620.8854,72.5 Q618.6458,72.5 617.5,74.2969 Q616.3542,76.0677 616.3542,79.5573 Q616.3542,83.0469 617.5,84.8438 Q618.6458,86.6146 620.8854,86.6146 Q621.9271,86.6146 622.9167,86.1719 Q623.9063,85.7031 624.9479,84.7396 L624.9479,89.2708 Z "/><text fill="#000000" font-family="sans-serif" font-size="20" font-style="italic" lengthAdjust="spacingAndGlyphs" textLength="186.6667" x="640" y="75.153">«publica eventos»</text><text fill="#000000" font-family="sans-serif" font-size="20" lengthAdjust="spacingAndGlyphs" textLength="163.3333" x="651.6667" y="98.4342">CaronasFacade</text><line style="stroke: #444444; stroke-width: 2.5;" x1="596.6667" x2="826.6667" y1="111.4844" y2="111.4844"/><line style="stroke: #444444; stroke-width: 2.5;" x1="596.6667" x2="826.6667" y1="124.8177" y2="124.8177"/><!--MD5=[6f3b9a676f0f0c33c464fdbc7c616f17]
class NotificacaoService--><rect fill="#FEFEFE" height="80" id="NotificacaoService" style="stroke: #444444; stroke-width: 2.5;" width="245" x="12.5" y="1106.5885"/><ellipse cx="37.5" cy="1133.2552" fill="#ADD1B2" rx="18.3333" ry="18.3333" style="stroke: #444444; stroke-width: 1.6666666666666667;"/><path d="M42.4479,1142.6563 Q41.4844,1143.151 40.4167,1143.3854 Q39.349,1143.6458 38.1771,1143.6458 Q34.0104,1143.6458 31.7969,1140.9115 Q29.6094,1138.151 29.6094,1132.9427 Q29.6094,1127.7344 31.7969,1124.974 Q34.0104,1122.2135 38.1771,1122.2135 Q39.349,1122.2135 40.4167,1122.474 Q41.5104,1122.7344 42.4479,1123.2292 L42.4479,1127.7604 Q41.4063,1126.7969 40.4167,1126.3542 Q39.4271,1125.8854 38.3854,1125.8854 Q36.1458,1125.8854 35,1127.6823 Q33.8542,1129.4531 33.8542,1132.9427 Q33.8542,1136.4323 35,1138.2292 Q36.1458,1140 38.3854,1140 Q39.4271,1140 40.4167,1139.5573 Q41.4063,1139.0885 42.4479,1138.125 L42.4479,1142.6563 Z "/><text fill="#000000" font-family="sans-serif" font-size="20" lengthAdjust="spacingAndGlyphs" textLength="191.6667" x="60.8333" y="1140.179">NotificacaoService</text><line style="stroke: #444444; stroke-width: 2.5;" x1="14.1667" x2="255.8333" y1="1159.9219" y2="1159.9219"/><line style="stroke: #444444; stroke-width: 2.5;" x1="14.1667" x2="255.8333" y1="1173.2552" y2="1173.2552"/><!--MD5=[a8aac1951a521184c2c7aa6f84f25928]
class HistoricoCorrridaService--><rect fill="#FEFEFE" height="80" id="HistoricoCorrridaService" style="stroke: #444444; stroke-width: 2.5;" width="303.3333" x="325" y="1106.5885"/><ellipse cx="350" cy="1133.2552" fill="#ADD1B2" rx="18.3333" ry="18.3333" style="stroke: #444444; stroke-width: 1.6666666666666667;"/><path d="M354.9479,1142.6563 Q353.9844,1143.151 352.9167,1143.3854 Q351.849,1143.6458 350.6771,1143.6458 Q346.5104,1143.6458 344.2969,1140.9115 Q342.1094,1138.151 342.1094,1132.9427 Q342.1094,1127.7344 344.2969,1124.974 Q346.5104,1122.2135 350.6771,1122.2135 Q351.849,1122.2135 352.9167,1122.474 Q354.0104,1122.7344 354.9479,1123.2292 L354.9479,1127.7604 Q353.9063,1126.7969 352.9167,1126.3542 Q351.9271,1125.8854 350.8854,1125.8854 Q348.6458,1125.8854 347.5,1127.6823 Q346.3542,1129.4531 346.3542,1132.9427 Q346.3542,1136.4323 347.5,1138.2292 Q348.6458,1140 350.8854,1140 Q351.9271,1140 352.9167,1139.5573 Q353.9063,1139.0885 354.9479,1138.125 L354.9479,1142.6563 Z "/><text fill="#000000" font-family="sans-serif" font-size="20" lengthAdjust="spacingAndGlyphs" textLength="250" x="373.3333" y="1140.179">HistoricoCorrridaService</text><line style="stroke: #444444; stroke-width: 2.5;" x1="326.6667" x2="626.6667" y1="1159.9219" y2="1159.9219"/><line style="stroke: #444444; stroke-width: 2.5;" x1="326.6667" x2="626.6667" y1="1173.2552" y2="1173.2552"/><!--MD5=[b19024b3d5a349807b635ad09cf7fe94]
link BarramentoEventos to ObservadorEventos--><path d="M711.6667,510.5385 C711.6667,510.5385 711.6667,540.1552 711.6667,552.9385 " fill="none" id="BarramentoEventos-ObservadorEventos" style="stroke: #444444; stroke-width: 1.6666666666666667;"/><polygon fill="#444444" points="711.6667,574.9052,718.3333,559.9052,711.6667,566.5719,705,559.9052,711.6667,574.9052" style="stroke: #444444; stroke-width: 1.6666666666666667;"/><line style="stroke: #444444; stroke-width: 1.6666666666666667;" x1="711.6667" x2="711.6667" y1="566.5719" y2="553.2385"/><polygon fill="#FFFFFF" points="711.6667,490.5385,705,500.5385,711.6667,510.5385,718.3333,500.5385,711.6667,490.5385" style="stroke: #444444; stroke-width: 1.6666666666666667;"/><text fill="#000000" font-family="sans-serif" font-size="21.6667" lengthAdjust="spacingAndGlyphs" textLength="11.6667" x="698.8516" y="556.6244">*</text><!--MD5=[a6410eb5209604b236cb901d2c7ab36f]
reverse link ObservadorEventos to NotificacaoObserver--><path d="M504.35,695.9552 C441,717.5719 371.7667,743.4552 310,771.5885 C276.2667,786.9552 240.4333,806.9552 210.55,824.7885 " fill="none" id="ObservadorEventos&lt;-NotificacaoObserver" style="stroke: #444444; stroke-width: 1.6666666666666667; stroke-dasharray: 7.0,7.0;"/><polygon fill="none" points="501.0667,684.7552,536.3833,685.2219,508.4833,706.8719,501.0667,684.7552" style="stroke: #444444; stroke-width: 1.6666666666666667;"/><!--MD5=[b58b96daab0f7b38338ee13319c3cd19]
reverse link ObservadorEventos to HistoricoObserver--><path d="M631.7167,710.9885 C593.1,748.9385 548.2167,793.0385 515.8333,824.8552 " fill="none" id="ObservadorEventos&lt;-HistoricoObserver" style="stroke: #444444; stroke-width: 1.6666666666666667; stroke-dasharray: 7.0,7.0;"/><polygon fill="none" points="624.05,702.1552,656,687.1219,640.4,718.8052,624.05,702.1552" style="stroke: #444444; stroke-width: 1.6666666666666667;"/><!--MD5=[a0aa7eca9863bad3f7b2edc7399999d6]
reverse link ObservadorEventos to AuditoriaObserver--><path d="M741.5333,718.6552 C754.0333,754.7552 768.0167,795.1552 778.3,824.8552 " fill="none" id="ObservadorEventos&lt;-AuditoriaObserver" style="stroke: #444444; stroke-width: 1.6666666666666667; stroke-dasharray: 7.0,7.0;"/><polygon fill="none" points="730.4833,722.4385,730.6,687.1219,752.5333,714.8052,730.4833,722.4385" style="stroke: #444444; stroke-width: 1.6666666666666667;"/><!--MD5=[d0c99abb636a885f7f78a9deaf809345]
link ObservadorEventos to EventoCarona--><path d="M812.7833,686.8219 C862.2667,713.4385 923.1833,746.2219 979.5833,776.5719 " fill="none" id="ObservadorEventos-&gt;EventoCarona" style="stroke: #444444; stroke-width: 1.6666666666666667; stroke-dasharray: 7.0,7.0;"/><polygon fill="#444444" points="987.15,780.6385,977.0759,767.6787,979.8043,776.7034,970.7797,779.4318,987.15,780.6385" style="stroke: #444444; stroke-width: 1.6666666666666667;"/><!--MD5=[824ee10c21ade5f3e0da431cdf8bbd65]
link EventoCarona to TipoEvento--><path d="M1150,968.7219 C1150,993.4052 1150,1019.9552 1150,1044.7885 " fill="none" id="EventoCarona-&gt;TipoEvento" style="stroke: #444444; stroke-width: 1.6666666666666667;"/><polygon fill="#444444" points="1150,1053.1385,1156.6667,1038.1385,1150,1044.8052,1143.3333,1038.1385,1150,1053.1385" style="stroke: #444444; stroke-width: 1.6666666666666667;"/><!--MD5=[be09ac7d4c4abe3e9dcb9c089155d1fb]
link CaronasFacade to BarramentoEventos--><path d="M711.6667,138.8385 C711.6667,166.6385 711.6667,204.1385 711.6667,240.7552 " fill="none" id="CaronasFacade-&gt;BarramentoEventos" style="stroke: #444444; stroke-width: 1.6666666666666667;"/><polygon fill="#444444" points="711.6667,249.5385,718.3333,234.5385,711.6667,241.2052,705,234.5385,711.6667,249.5385" style="stroke: #444444; stroke-width: 1.6666666666666667;"/><text fill="#000000" font-family="sans-serif" font-size="21.6667" lengthAdjust="spacingAndGlyphs" textLength="100" x="713.3333" y="201.7">publicar()</text><!--MD5=[cf470e0028a0c99bbe9a1bc809b7df63]
link NotificacaoObserver to NotificacaoService--><path d="M140.6,915.5052 C139.3833,965.4385 137.4,1046.6385 136.15,1097.8385 " fill="none" id="NotificacaoObserver-&gt;NotificacaoService" style="stroke: #444444; stroke-width: 1.6666666666666667;"/><polygon fill="#444444" points="135.9333,1106.4219,142.942,1091.5786,136.1243,1098.0907,129.6122,1091.273,135.9333,1106.4219" style="stroke: #444444; stroke-width: 1.6666666666666667;"/><!--MD5=[9a777e0c72f68e6ffb4f5b05cb18c6e2]
link HistoricoObserver to HistoricoCorrridaService--><path d="M472.4667,915.5052 C473.3833,965.4385 474.8667,1046.6385 475.8,1097.8385 " fill="none" id="HistoricoObserver-&gt;HistoricoCorrridaService" style="stroke: #444444; stroke-width: 1.6666666666666667;"/><polygon fill="#444444" points="475.9667,1106.4219,482.3752,1091.3098,475.8238,1098.0898,469.0439,1091.5383,475.9667,1106.4219" style="stroke: #444444; stroke-width: 1.6666666666666667;"/><!--MD5=[064a5a742f1121b1d7bb79d18a20bb49]
link BarramentoEventos to BarramentoEventos--><path d="M925.95,341.5719 C965.0667,345.1552 992.5,354.6052 992.5,369.9219 C992.5,384.1052 968.9833,393.2552 934.45,397.3719 " fill="none" id="BarramentoEventos-&gt;BarramentoEventos" style="stroke: #444444; stroke-width: 1.6666666666666667; stroke-dasharray: 7.0,7.0;"/><polygon fill="#444444" points="925.95,398.2719,941.5564,403.3597,934.2391,397.4144,940.1844,390.0971,925.95,398.2719" style="stroke: #444444; stroke-width: 1.6666666666666667;"/><text fill="#000000" font-family="sans-serif" font-size="21.6667" lengthAdjust="spacingAndGlyphs" textLength="158.3333" x="1002.5" y="377.5334">única instância</text><!--MD5=[128d02d2874f524e58856d0923bc6206]
@startuml
title Observer + Singleton - eventos do domínio
skinparam dpi 160
skinparam classAttributeIconSize 0
skinparam shadowing false
skinparam ClassBackgroundColor #FEFEFE
skinparam ClassBorderColor #444444
skinparam ArrowColor #444444
skinparam NoteBackgroundColor #FFF8DC
skinparam nodesep 40
skinparam ranksep 50
class BarramentoEventos <<Subject, Singleton>> {
  - {static} INSTANCIA : BarramentoEventos
  - observadores : List<ObservadorEventos>
  - BarramentoEventos()
  + {static} getInstancia() : BarramentoEventos
  + registrar(o : ObservadorEventos) : void
  + remover(o : ObservadorEventos) : void
  + publicar(e : EventoCarona) : void
}
interface ObservadorEventos <<Observer>> {
  + atualizar(e : EventoCarona) : void
}
class NotificacaoObserver <<ConcreteObserver>>
class HistoricoObserver <<ConcreteObserver>>
class AuditoriaObserver <<ConcreteObserver>>
class EventoCarona <<record>> {
  + tipo : TipoEvento
  + solicitacao : SolicitacaoCarona
  + carona : Carona
  + pagamento : Pagamento
  + quando : LocalDateTime
}
enum TipoEvento {
  SOLICITACAO_CRIADA
  SOLICITACAO_ACEITA
  SOLICITACAO_RECUSADA
  SOLICITACAO_CANCELADA
  PAGAMENTO_REALIZADO
}
class CaronasFacade <<publica eventos>>
class NotificacaoService
class HistoricoCorrridaService
BarramentoEventos o- -> "*" ObservadorEventos
ObservadorEventos <|.. NotificacaoObserver
ObservadorEventos <|.. HistoricoObserver
ObservadorEventos <|.. AuditoriaObserver
ObservadorEventos ..> EventoCarona
EventoCarona - -> TipoEvento
CaronasFacade - -> BarramentoEventos : publicar()
NotificacaoObserver - -> NotificacaoService
HistoricoObserver - -> HistoricoCorrridaService
BarramentoEventos ..> BarramentoEventos : única instância
@enduml

PlantUML version 1.2020.02(Sun Mar 01 10:22:07 UTC 2020)
(GPL source distribution)
Java Runtime: OpenJDK Runtime Environment
JVM: OpenJDK 64-Bit Server VM
Java Version: 21.0.12.1+1-1-24.04.4-Ubuntu
Operating System: Linux
Default Encoding: UTF-8
Language: en
Country: US
--></g></svg>